<svg version="1.1" viewBox="0.0 0.0 3779.527559055118 3779.527559055118" fill="none" stroke="none" stroke-linecap="square" stroke-miterlimit="10" xmlns:xlink="http://www.w3.org/1999/xlink" xmlns="http://www.w3.org/2000/svg"><clipPath id="p.0"><path d="m0 0l3779.5276 0l0 3779.5276l-3779.5276 0l0 -3779.5276z" clip-rule="nonzero"/></clipPath><g clip-path="url(#p.0)"><defs><radialGradient id="p.1" gradientUnits="userSpaceOnUse" gradientTransform="matrix(73.10991078587163 0.0 0.0 73.10991078587163 0.0 0.0)" spreadMethod="pad" cx="0.0" cy="0.0" fx="0.0" fy="0.0" r="73.10990905761719"><stop offset="0.0" stop-color="#4b2f23"/><stop offset="1.0" stop-color="#660000"/></radialGradient></defs><path fill="url(#p.1)" d="m0 0l3779.5276 0l0 3779.5276l-3779.5276 0z" fill-rule="evenodd"/><defs><linearGradient id="p.2" gradientUnits="userSpaceOnUse" gradientTransform="matrix(69.87656191759908 0.0 0.0 69.87656191759908 0.0 0.0)" spreadMethod="pad" x1="-22.3658742046261" y1="27.044226190753747" x2="27.04422853835057" y2="76.45450500349213"><stop offset="0.0" stop-color="#e5c18f"/><stop offset="0.5" stop-color="#e5c18f"/><stop offset="1.0" stop-color="#737373"/></linearGradient></defs><path fill="url(#p.2)" d="m179.40158 147.51181l3420.7244 0l0 3484.5042l-3420.7244 0z" fill-rule="evenodd"/><path stroke="#000000" stroke-width="1.0" stroke-linejoin="round" stroke-linecap="butt" d="m179.40158 147.51181l3420.7244 0l0 3484.5042l-3420.7244 0z" fill-rule="evenodd"/><defs><radialGradient id="p.3" gradientUnits="userSpaceOnUse" gradientTransform="matrix(23.83091531197027 0.0 0.0 23.83091531197027 0.0 0.0)" spreadMethod="pad" cx="11.894824987555118" cy="11.894824987555118" fx="11.894824987555118" fy="11.894824987555118" r="23.830915451049805"><stop offset="0.0" stop-color="#4b2f23"/><stop offset="1.0" stop-color="#660000"/></radialGradient></defs><path shape-rendering="crispEdges" fill="url(#p.3)" d="m283.46457 283.46457l401.5748 0l0 401.5748l-401.5748 0l0 -401.5748z" fill-rule="nonzero"/><defs><linearGradient id="p.4" gradientUnits="userSpaceOnUse" gradientTransform="matrix(23.830915486452437 0.0 0.0 23.830915486452437 0.0 0.0)" spreadMethod="pad" x1="20.320325871627883" y1="20.32029489552137" x2="37.17129683784693" y2="37.17132781395344"><stop offset="0.0" stop-color="#e5c18f"/><stop offset="0.5" stop-color="#e5c18f"/><stop offset="1.0" stop-color="#737373"/></linearGradient></defs><path shape-rendering="crispEdges" fill="url(#p.4)" d="m685.03937 283.46457l401.57477 0l0 401.5748l-401.57477 0l0 -401.5748z" fill-rule="nonzero"/><defs><radialGradient id="p.5" gradientUnits="userSpaceOnUse" gradientTransform="matrix(23.83091531197027 0.0 0.0 23.83091531197027 0.0 0.0)" spreadMethod="pad" cx="45.59682911896128" cy="11.894824987555118" fx="45.59682911896128" fy="11.894824987555118" r="23.830915451049805"><stop offset="0.0" stop-color="#4b2f23"/><stop offset="1.0" stop-color="#660000"/></radialGradient></defs><path shape-rendering="crispEdges" fill="url(#p.5)" d="m1086.6141 283.46457l401.57483 0l0 401.5748l-401.57483 0l0 -401.5748z" fill-rule="nonzero"/><defs><linearGradient id="p.6" gradientUnits="userSpaceOnUse" gradientTransform="matrix(23.830917311735845 0.0 0.0 23.830917311735845 0.0 0.0)" spreadMethod="pad" x1="54.02232561854226" y1="20.320295060022026" x2="70.87329873588286" y2="37.171328408676224"><stop offset="0.0" stop-color="#e5c18f"/><stop offset="0.5" stop-color="#e5c18f"/><stop offset="1.0" stop-color="#737373"/></linearGradient></defs><path shape-rendering="crispEdges" fill="url(#p.6)" d="m1488.189 283.46457l401.57483 0l0 401.5748l-401.57483 0l0 -401.5748z" fill-rule="nonzero"/><defs><radialGradient id="p.7" gradientUnits="userSpaceOnUse" gradientTransform="matrix(23.83091531197027 0.0 0.0 23.83091531197027 0.0 0.0)" spreadMethod="pad" cx="79.29883325036745" cy="11.894824987555118" fx="79.29883325036745" fy="11.894824987555118" r="23.830915451049805"><stop offset="0.0" stop-color="#4b2f23"/><stop offset="1.0" stop-color="#660000"/></radialGradient></defs><path shape-rendering="crispEdges" fill="url(#p.7)" d="m1889.7638 283.46457l401.57483 0l0 401.5748l-401.57483 0l0 -401.5748z" fill-rule="nonzero"/><defs><linearGradient id="p.8" gradientUnits="userSpaceOnUse" gradientTransform="matrix(23.830917311735845 0.0 0.0 23.830917311735845 0.0 0.0)" spreadMethod="pad" x1="87.72432692185302" y1="20.32029161823268" x2="104.57530003919362" y2="37.17132496688688"><stop offset="0.0" stop-color="#e5c18f"/><stop offset="0.5" stop-color="#e5c18f"/><stop offset="1.0" stop-color="#737373"/></linearGradient></defs><path shape-rendering="crispEdges" fill="url(#p.8)" d="m2291.3386 283.46457l401.5747 0l0 401.5748l-401.5747 0l0 -401.5748z" fill-rule="nonzero"/><defs><radialGradient id="p.9" gradientUnits="userSpaceOnUse" gradientTransform="matrix(23.83091531197027 0.0 0.0 23.83091531197027 0.0 0.0)" spreadMethod="pad" cx="113.00083738177362" cy="11.894824987555118" fx="113.00083738177362" fy="11.894824987555118" r="23.830915451049805"><stop offset="0.0" stop-color="#4b2f23"/><stop offset="1.0" stop-color="#660000"/></radialGradient></defs><path shape-rendering="crispEdges" fill="url(#p.9)" d="m2692.9133 283.46457l401.57495 0l0 401.5748l-401.57495 0l0 -401.5748z" fill-rule="nonzero"/><defs><linearGradient id="p.10" gradientUnits="userSpaceOnUse" gradientTransform="matrix(23.83091670330662 0.0 0.0 23.83091670330662 0.0 0.0)" spreadMethod="pad" x1="121.42633132531004" y1="20.320293857926547" x2="138.2773048728743" y2="37.17132591591124"><stop offset="0.0" stop-color="#e5c18f"/><stop offset="0.5" stop-color="#e5c18f"/><stop offset="1.0" stop-color="#737373"/></linearGradient></defs><path shape-rendering="crispEdges" fill="url(#p.10)" d="m3094.4883 283.46457l401.5747 0l0 401.5748l-401.5747 0l0 -401.5748z" fill-rule="nonzero"/><defs><linearGradient id="p.11" gradientUnits="userSpaceOnUse" gradientTransform="matrix(23.830916018826134 0.0 0.0 23.830916018826134 0.0 0.0)" spreadMethod="pad" x1="3.469324066910776" y1="37.171296007454146" x2="20.320296162468395" y2="54.02232854944048"><stop offset="0.0" stop-color="#e5c18f"/><stop offset="0.5" stop-color="#e5c18f"/><stop offset="1.0" stop-color="#737373"/></linearGradient></defs><path shape-rendering="crispEdges" fill="url(#p.11)" d="m283.46457 685.03937l401.5748 0l0 401.57477l-401.5748 0l0 -401.57477z" fill-rule="nonzero"/><defs><radialGradient id="p.12" gradientUnits="userSpaceOnUse" gradientTransform="matrix(23.83091531197027 0.0 0.0 23.83091531197027 0.0 0.0)" spreadMethod="pad" cx="28.7458270532582" cy="28.7458270532582" fx="28.7458270532582" fy="28.7458270532582" r="23.830915451049805"><stop offset="0.0" stop-color="#4b2f23"/><stop offset="1.0" stop-color="#660000"/></radialGradient></defs><path shape-rendering="crispEdges" fill="url(#p.12)" d="m685.03937 685.03937l401.57477 0l0 401.57477l-401.57477 0l0 -401.57477z" fill-rule="nonzero"/><defs><linearGradient id="p.13" gradientUnits="userSpaceOnUse" gradientTransform="matrix(23.830915486452437 0.0 0.0 23.830915486452437 0.0 0.0)" spreadMethod="pad" x1="37.17132781395344" y1="37.17129683784693" x2="54.02229878017249" y2="54.022329756279"><stop offset="0.0" stop-color="#e5c18f"/><stop offset="0.5" stop-color="#e5c18f"/><stop offset="1.0" stop-color="#737373"/></linearGradient></defs><path shape-rendering="crispEdges" fill="url(#p.13)" d="m1086.6141 685.03937l401.57483 0l0 401.57477l-401.57483 0l0 -401.57477z" fill-rule="nonzero"/><defs><radialGradient id="p.14" gradientUnits="userSpaceOnUse" gradientTransform="matrix(23.83091531197027 0.0 0.0 23.83091531197027 0.0 0.0)" spreadMethod="pad" cx="62.447831184664366" cy="28.7458270532582" fx="62.447831184664366" fy="28.7458270532582" r="23.830915451049805"><stop offset="0.0" stop-color="#4b2f23"/><stop offset="1.0" stop-color="#660000"/></radialGradient></defs><path shape-rendering="crispEdges" fill="url(#p.14)" d="m1488.189 685.03937l401.57483 0l0 401.57477l-401.57483 0l0 -401.57477z" fill-rule="nonzero"/><defs><linearGradient id="p.15" gradientUnits="userSpaceOnUse" gradientTransform="matrix(23.83091183588082 0.0 0.0 23.83091183588082 0.0 0.0)" spreadMethod="pad" x1="70.87334255543517" y1="37.17130597377425" x2="87.72431266120367" y2="54.02233458997513"><stop offset="0.0" stop-color="#e5c18f"/><stop offset="0.5" stop-color="#e5c18f"/><stop offset="1.0" stop-color="#737373"/></linearGradient></defs><path shape-rendering="crispEdges" fill="url(#p.15)" d="m1889.7638 685.03937l401.57483 0l0 401.57477l-401.57483 0l0 -401.57477z" fill-rule="nonzero"/><defs><radialGradient id="p.16" gradientUnits="userSpaceOnUse" gradientTransform="matrix(23.83091531197027 0.0 0.0 23.83091531197027 0.0 0.0)" spreadMethod="pad" cx="96.14983531607054" cy="28.7458270532582" fx="96.14983531607054" fy="28.7458270532582" r="23.830915451049805"><stop offset="0.0" stop-color="#4b2f23"/><stop offset="1.0" stop-color="#660000"/></radialGradient></defs><path shape-rendering="crispEdges" fill="url(#p.16)" d="m2291.3386 685.03937l401.5747 0l0 401.57477l-401.5747 0l0 -401.57477z" fill-rule="nonzero"/><defs><linearGradient id="p.17" gradientUnits="userSpaceOnUse" gradientTransform="matrix(23.83091670330662 0.0 0.0 23.83091670330662 0.0 0.0)" spreadMethod="pad" x1="104.57533024343029" y1="37.17129493980631" x2="121.42630379099455" y2="54.022326997791"><stop offset="0.0" stop-color="#e5c18f"/><stop offset="0.5" stop-color="#e5c18f"/><stop offset="1.0" stop-color="#737373"/></linearGradient></defs><path shape-rendering="crispEdges" fill="url(#p.17)" d="m2692.9133 685.03937l401.57495 0l0 401.57477l-401.57495 0l0 -401.57477z" fill-rule="nonzero"/><defs><radialGradient id="p.18" gradientUnits="userSpaceOnUse" gradientTransform="matrix(23.83091531197027 0.0 0.0 23.83091531197027 0.0 0.0)" spreadMethod="pad" cx="129.8518394474767" cy="28.7458270532582" fx="129.8518394474767" fy="28.7458270532582" r="23.830915451049805"><stop offset="0.0" stop-color="#4b2f23"/><stop offset="1.0" stop-color="#660000"/></radialGradient></defs><path shape-rendering="crispEdges" fill="url(#p.18)" d="m3094.4883 685.03937l401.5747 0l0 401.57477l-401.5747 0l0 -401.57477z" fill-rule="nonzero"/><defs><radialGradient id="p.19" gradientUnits="userSpaceOnUse" gradientTransform="matrix(23.83091531197027 0.0 0.0 23.83091531197027 0.0 0.0)" spreadMethod="pad" cx="11.894824987555118" cy="45.59682911896128" fx="11.894824987555118" fy="45.59682911896128" r="23.830915451049805"><stop offset="0.0" stop-color="#4b2f23"/><stop offset="1.0" stop-color="#660000"/></radialGradient></defs><path shape-rendering="crispEdges" fill="url(#p.19)" d="m283.46457 1086.6141l401.5748 0l0 401.57483l-401.5748 0l0 -401.57483z" fill-rule="nonzero"/><defs><linearGradient id="p.20" gradientUnits="userSpaceOnUse" gradientTransform="matrix(23.83091487802537 0.0 0.0 23.83091487802537 0.0 0.0)" spreadMethod="pad" x1="20.320328111320954" y1="54.02230015941575" x2="37.17129778686728" y2="70.87333350807152"><stop offset="0.0" stop-color="#e5c18f"/><stop offset="0.5" stop-color="#e5c18f"/><stop offset="1.0" stop-color="#737373"/></linearGradient></defs><path shape-rendering="crispEdges" fill="url(#p.20)" d="m685.03937 1086.6141l401.57477 0l0 401.57483l-401.57477 0l0 -401.57483z" fill-rule="nonzero"/><defs><radialGradient id="p.21" gradientUnits="userSpaceOnUse" gradientTransform="matrix(23.83091531197027 0.0 0.0 23.83091531197027 0.0 0.0)" spreadMethod="pad" cx="45.59682911896128" cy="45.59682911896128" fx="45.59682911896128" fy="45.59682911896128" r="23.830915451049805"><stop offset="0.0" stop-color="#4b2f23"/><stop offset="1.0" stop-color="#660000"/></radialGradient></defs><path shape-rendering="crispEdges" fill="url(#p.21)" d="m1086.6141 1086.6141l401.57483 0l0 401.57483l-401.57483 0l0 -401.57483z" fill-rule="nonzero"/><defs><linearGradient id="p.22" gradientUnits="userSpaceOnUse" gradientTransform="matrix(23.83091670330662 0.0 0.0 23.83091670330662 0.0 0.0)" spreadMethod="pad" x1="54.022326997791" y1="54.02229602168607" x2="70.87330054535526" y2="70.87332807967076"><stop offset="0.0" stop-color="#e5c18f"/><stop offset="0.5" stop-color="#e5c18f"/><stop offset="1.0" stop-color="#737373"/></linearGradient></defs><path shape-rendering="crispEdges" fill="url(#p.22)" d="m1488.189 1086.6141l401.57483 0l0 401.57483l-401.57483 0l0 -401.57483z" fill-rule="nonzero"/><defs><radialGradient id="p.23" gradientUnits="userSpaceOnUse" gradientTransform="matrix(23.83091531197027 0.0 0.0 23.83091531197027 0.0 0.0)" spreadMethod="pad" cx="79.29883325036745" cy="45.59682911896128" fx="79.29883325036745" fy="45.59682911896128" r="23.830915451049805"><stop offset="0.0" stop-color="#4b2f23"/><stop offset="1.0" stop-color="#660000"/></radialGradient></defs><path shape-rendering="crispEdges" fill="url(#p.23)" d="m1889.7638 1086.6141l401.57483 0l0 401.57483l-401.57483 0l0 -401.57483z" fill-rule="nonzero"/><defs><linearGradient id="p.24" gradientUnits="userSpaceOnUse" gradientTransform="matrix(23.830914269598317 0.0 0.0 23.830914269598317 0.0 0.0)" spreadMethod="pad" x1="87.72433812030995" y1="54.02230153865905" x2="104.57530650518348" y2="70.87333531753855"><stop offset="0.0" stop-color="#e5c18f"/><stop offset="0.5" stop-color="#e5c18f"/><stop offset="1.0" stop-color="#737373"/></linearGradient></defs><path shape-rendering="crispEdges" fill="url(#p.24)" d="m2291.3386 1086.6141l401.5747 0l0 401.57483l-401.5747 0l0 -401.57483z" fill-rule="nonzero"/><defs><radialGradient id="p.25" gradientUnits="userSpaceOnUse" gradientTransform="matrix(23.83091531197027 0.0 0.0 23.83091531197027 0.0 0.0)" spreadMethod="pad" cx="113.00083738177362" cy="45.59682911896128" fx="113.00083738177362" fy="45.59682911896128" r="23.830915451049805"><stop offset="0.0" stop-color="#4b2f23"/><stop offset="1.0" stop-color="#660000"/></radialGradient></defs><path shape-rendering="crispEdges" fill="url(#p.25)" d="m2692.9133 1086.6141l401.57495 0l0 401.57483l-401.57495 0l0 -401.57483z" fill-rule="nonzero"/><defs><linearGradient id="p.26" gradientUnits="userSpaceOnUse" gradientTransform="matrix(23.830914269589872 0.0 0.0 23.830914269589872 0.0 0.0)" spreadMethod="pad" x1="121.4263437258958" y1="54.02230153867821" x2="138.27731899435489" y2="70.8733284339841"><stop offset="0.0" stop-color="#e5c18f"/><stop offset="0.5" stop-color="#e5c18f"/><stop offset="1.0" stop-color="#737373"/></linearGradient></defs><path shape-rendering="crispEdges" fill="url(#p.26)" d="m3094.4883 1086.6141l401.5747 0l0 401.57483l-401.5747 0l0 -401.57483z" fill-rule="nonzero"/><defs><linearGradient id="p.27" gradientUnits="userSpaceOnUse" gradientTransform="matrix(23.830916094884117 0.0 0.0 23.830916094884117 0.0 0.0)" spreadMethod="pad" x1="3.469323840726348" y1="70.87329547122872" x2="20.32029265582527" y2="87.72433140122337"><stop offset="0.0" stop-color="#e5c18f"/><stop offset="0.5" stop-color="#e5c18f"/><stop offset="1.0" stop-color="#737373"/></linearGradient></defs><path shape-rendering="crispEdges" fill="url(#p.27)" d="m283.46457 1488.189l401.5748 0l0 401.57483l-401.5748 0l0 -401.57483z" fill-rule="nonzero"/><defs><radialGradient id="p.28" gradientUnits="userSpaceOnUse" gradientTransform="matrix(23.83091531197027 0.0 0.0 23.83091531197027 0.0 0.0)" spreadMethod="pad" cx="28.7458270532582" cy="62.447831184664366" fx="28.7458270532582" fy="62.447831184664366" r="23.830915451049805"><stop offset="0.0" stop-color="#4b2f23"/><stop offset="1.0" stop-color="#660000"/></radialGradient></defs><path shape-rendering="crispEdges" fill="url(#p.28)" d="m685.03937 1488.189l401.57477 0l0 401.57483l-401.57477 0l0 -401.57483z" fill-rule="nonzero"/><defs><linearGradient id="p.29" gradientUnits="userSpaceOnUse" gradientTransform="matrix(23.830916703311093 0.0 0.0 23.830916703311093 0.0 0.0)" spreadMethod="pad" x1="37.171325915904255" y1="70.87329366176309" x2="54.02229602167592" y2="87.72432916153404"><stop offset="0.0" stop-color="#e5c18f"/><stop offset="0.5" stop-color="#e5c18f"/><stop offset="1.0" stop-color="#737373"/></linearGradient></defs><path shape-rendering="crispEdges" fill="url(#p.29)" d="m1086.6141 1488.189l401.57483 0l0 401.57483l-401.57483 0l0 -401.57483z" fill-rule="nonzero"/><defs><radialGradient id="p.30" gradientUnits="userSpaceOnUse" gradientTransform="matrix(23.83091531197027 0.0 0.0 23.83091531197027 0.0 0.0)" spreadMethod="pad" cx="62.447831184664366" cy="62.447831184664366" fx="62.447831184664366" fy="62.447831184664366" r="23.830915451049805"><stop offset="0.0" stop-color="#4b2f23"/><stop offset="1.0" stop-color="#660000"/></radialGradient></defs><path shape-rendering="crispEdges" fill="url(#p.30)" d="m1488.189 1488.189l401.57483 0l0 401.57483l-401.57483 0l0 -401.57483z" fill-rule="nonzero"/><defs><linearGradient id="p.31" gradientUnits="userSpaceOnUse" gradientTransform="matrix(23.830913052739543 0.0 0.0 23.830913052739543 0.0 0.0)" spreadMethod="pad" x1="70.87333893648676" y1="70.87331140216705" x2="87.72430818180774" y2="87.72434259970738"><stop offset="0.0" stop-color="#e5c18f"/><stop offset="0.5" stop-color="#e5c18f"/><stop offset="1.0" stop-color="#737373"/></linearGradient></defs><path shape-rendering="crispEdges" fill="url(#p.31)" d="m1889.7638 1488.189l401.57483 0l0 401.57483l-401.57483 0l0 -401.57483z" fill-rule="nonzero"/><defs><radialGradient id="p.32" gradientUnits="userSpaceOnUse" gradientTransform="matrix(23.83091531197027 0.0 0.0 23.83091531197027 0.0 0.0)" spreadMethod="pad" cx="96.14983531607054" cy="62.447831184664366" fx="96.14983531607054" fy="62.447831184664366" r="23.830915451049805"><stop offset="0.0" stop-color="#4b2f23"/><stop offset="1.0" stop-color="#660000"/></radialGradient></defs><path shape-rendering="crispEdges" fill="url(#p.32)" d="m2291.3386 1488.189l401.5747 0l0 401.57483l-401.5747 0l0 -401.57483z" fill-rule="nonzero"/><defs><linearGradient id="p.33" gradientUnits="userSpaceOnUse" gradientTransform="matrix(23.830920353882213 0.0 0.0 23.830920353882213 0.0 0.0)" spreadMethod="pad" x1="104.57531422390008" y1="70.87328280494366" x2="121.42628519012247" y2="87.72432260694424"><stop offset="0.0" stop-color="#e5c18f"/><stop offset="0.5" stop-color="#e5c18f"/><stop offset="1.0" stop-color="#737373"/></linearGradient></defs><path shape-rendering="crispEdges" fill="url(#p.33)" d="m2692.9133 1488.189l401.57495 0l0 401.57483l-401.57495 0l0 -401.57483z" fill-rule="nonzero"/><defs><radialGradient id="p.34" gradientUnits="userSpaceOnUse" gradientTransform="matrix(23.83091531197027 0.0 0.0 23.83091531197027 0.0 0.0)" spreadMethod="pad" cx="129.8518394474767" cy="62.447831184664366" fx="129.8518394474767" fy="62.447831184664366" r="23.830915451049805"><stop offset="0.0" stop-color="#4b2f23"/><stop offset="1.0" stop-color="#660000"/></radialGradient></defs><path shape-rendering="crispEdges" fill="url(#p.34)" d="m3094.4883 1488.189l401.5747 0l0 401.57483l-401.5747 0l0 -401.57483z" fill-rule="nonzero"/><defs><radialGradient id="p.35" gradientUnits="userSpaceOnUse" gradientTransform="matrix(23.83091531197027 0.0 0.0 23.83091531197027 0.0 0.0)" spreadMethod="pad" cx="11.894824987555118" cy="79.29883325036745" fx="11.894824987555118" fy="79.29883325036745" r="23.830915451049805"><stop offset="0.0" stop-color="#4b2f23"/><stop offset="1.0" stop-color="#660000"/></radialGradient></defs><path shape-rendering="crispEdges" fill="url(#p.35)" d="m283.46457 1889.7638l401.5748 0l0 401.57483l-401.5748 0l0 -401.57483z" fill-rule="nonzero"/><defs><linearGradient id="p.36" gradientUnits="userSpaceOnUse" gradientTransform="matrix(23.83091792016509 0.0 0.0 23.83091792016509 0.0 0.0)" spreadMethod="pad" x1="20.32032035464226" y1="87.72429026426298" x2="37.17129304175919" y2="104.5753249035866"><stop offset="0.0" stop-color="#e5c18f"/><stop offset="0.5" stop-color="#e5c18f"/><stop offset="1.0" stop-color="#737373"/></linearGradient></defs><path shape-rendering="crispEdges" fill="url(#p.36)" d="m685.03937 1889.7638l401.57477 0l0 401.57483l-401.57477 0l0 -401.57483z" fill-rule="nonzero"/><defs><radialGradient id="p.37" gradientUnits="userSpaceOnUse" gradientTransform="matrix(23.83091531197027 0.0 0.0 23.83091531197027 0.0 0.0)" spreadMethod="pad" cx="45.59682911896128" cy="79.29883325036745" fx="45.59682911896128" fy="79.29883325036745" r="23.830915451049805"><stop offset="0.0" stop-color="#4b2f23"/><stop offset="1.0" stop-color="#660000"/></radialGradient></defs><path shape-rendering="crispEdges" fill="url(#p.37)" d="m1086.6141 1889.7638l401.57483 0l0 401.57483l-401.57483 0l0 -401.57483z" fill-rule="nonzero"/><defs><linearGradient id="p.38" gradientUnits="userSpaceOnUse" gradientTransform="matrix(23.830910619022166 0.0 0.0 23.830910619022166 0.0 0.0)" spreadMethod="pad" x1="54.02234079026454" y1="87.72432402418045" x2="70.8733117564806" y2="104.57535005904155"><stop offset="0.0" stop-color="#e5c18f"/><stop offset="0.5" stop-color="#e5c18f"/><stop offset="1.0" stop-color="#737373"/></linearGradient></defs><path shape-rendering="crispEdges" fill="url(#p.38)" d="m1488.189 1889.7638l401.57483 0l0 401.57483l-401.57483 0l0 -401.57483z" fill-rule="nonzero"/><defs><radialGradient id="p.39" gradientUnits="userSpaceOnUse" gradientTransform="matrix(23.83091531197027 0.0 0.0 23.83091531197027 0.0 0.0)" spreadMethod="pad" cx="79.29883325036745" cy="79.29883325036745" fx="79.29883325036745" fy="79.29883325036745" r="23.830915451049805"><stop offset="0.0" stop-color="#4b2f23"/><stop offset="1.0" stop-color="#660000"/></radialGradient></defs><path shape-rendering="crispEdges" fill="url(#p.39)" d="m1889.7638 1889.7638l401.57483 0l0 401.57483l-401.57483 0l0 -401.57483z" fill-rule="nonzero"/><defs><linearGradient id="p.40" gradientUnits="userSpaceOnUse" gradientTransform="matrix(23.83091792016509 0.0 0.0 23.83091792016509 0.0 0.0)" spreadMethod="pad" x1="87.72432468215558" y1="87.72429026426298" x2="104.57529736927252" y2="104.5753249035866"><stop offset="0.0" stop-color="#e5c18f"/><stop offset="0.5" stop-color="#e5c18f"/><stop offset="1.0" stop-color="#737373"/></linearGradient></defs><path shape-rendering="crispEdges" fill="url(#p.40)" d="m2291.3386 1889.7638l401.5747 0l0 401.57483l-401.5747 0l0 -401.57483z" fill-rule="nonzero"/><defs><radialGradient id="p.41" gradientUnits="userSpaceOnUse" gradientTransform="matrix(23.83091531197027 0.0 0.0 23.83091531197027 0.0 0.0)" spreadMethod="pad" cx="113.00083738177362" cy="79.29883325036745" fx="113.00083738177362" fy="79.29883325036745" r="23.830915451049805"><stop offset="0.0" stop-color="#4b2f23"/><stop offset="1.0" stop-color="#660000"/></radialGradient></defs><path shape-rendering="crispEdges" fill="url(#p.41)" d="m2692.9133 1889.7638l401.57495 0l0 401.57483l-401.57495 0l0 -401.57483z" fill-rule="nonzero"/><defs><linearGradient id="p.42" gradientUnits="userSpaceOnUse" gradientTransform="matrix(23.830915486448212 0.0 0.0 23.830915486448212 0.0 0.0)" spreadMethod="pad" x1="121.42633752560278" y1="87.72430610662877" x2="138.2773119336144" y2="104.57533558327422"><stop offset="0.0" stop-color="#e5c18f"/><stop offset="0.5" stop-color="#e5c18f"/><stop offset="1.0" stop-color="#737373"/></linearGradient></defs><path shape-rendering="crispEdges" fill="url(#p.42)" d="m3094.4883 1889.7638l401.5747 0l0 401.57483l-401.5747 0l0 -401.57483z" fill-rule="nonzero"/><defs><linearGradient id="p.43" gradientUnits="userSpaceOnUse" gradientTransform="matrix(23.830914649860826 0.0 0.0 23.830914649860826 0.0 0.0)" spreadMethod="pad" x1="3.46932641732445" y1="104.57531172008724" x2="20.320299050661326" y2="121.42634178829029"><stop offset="0.0" stop-color="#e5c18f"/><stop offset="0.5" stop-color="#e5c18f"/><stop offset="1.0" stop-color="#737373"/></linearGradient></defs><path shape-rendering="crispEdges" fill="url(#p.43)" d="m283.46457 2291.3386l401.5748 0l0 401.5747l-401.5748 0l0 -401.5747z" fill-rule="nonzero"/><defs><radialGradient id="p.44" gradientUnits="userSpaceOnUse" gradientTransform="matrix(23.83091531197027 0.0 0.0 23.83091531197027 0.0 0.0)" spreadMethod="pad" cx="28.7458270532582" cy="96.14983531607054" fx="28.7458270532582" fy="96.14983531607054" r="23.830915451049805"><stop offset="0.0" stop-color="#4b2f23"/><stop offset="1.0" stop-color="#660000"/></radialGradient></defs><path shape-rendering="crispEdges" fill="url(#p.44)" d="m685.03937 2291.3386l401.57477 0l0 401.5747l-401.57477 0l0 -401.5747z" fill-rule="nonzero"/><defs><linearGradient id="p.45" gradientUnits="userSpaceOnUse" gradientTransform="matrix(23.830919137019148 0.0 0.0 23.830919137019148 0.0 0.0)" spreadMethod="pad" x1="37.171322119820914" y1="104.57528514587199" x2="54.0222973882828" y2="121.42631892474832"><stop offset="0.0" stop-color="#e5c18f"/><stop offset="0.5" stop-color="#e5c18f"/><stop offset="1.0" stop-color="#737373"/></linearGradient></defs><path shape-rendering="crispEdges" fill="url(#p.45)" d="m1086.6141 2291.3386l401.57483 0l0 401.5747l-401.57483 0l0 -401.5747z" fill-rule="nonzero"/><defs><radialGradient id="p.46" gradientUnits="userSpaceOnUse" gradientTransform="matrix(23.83091531197027 0.0 0.0 23.83091531197027 0.0 0.0)" spreadMethod="pad" cx="62.447831184664366" cy="96.14983531607054" fx="62.447831184664366" fy="96.14983531607054" r="23.830915451049805"><stop offset="0.0" stop-color="#4b2f23"/><stop offset="1.0" stop-color="#660000"/></radialGradient></defs><path shape-rendering="crispEdges" fill="url(#p.46)" d="m1488.189 2291.3386l401.57483 0l0 401.5747l-401.57483 0l0 -401.5747z" fill-rule="nonzero"/><defs><linearGradient id="p.47" gradientUnits="userSpaceOnUse" gradientTransform="matrix(23.830920353873264 0.0 0.0 23.830920353873264 0.0 0.0)" spreadMethod="pad" x1="70.87331033928155" y1="104.57527980605026" x2="87.72428818908809" y2="121.42631272447935"><stop offset="0.0" stop-color="#e5c18f"/><stop offset="0.5" stop-color="#e5c18f"/><stop offset="1.0" stop-color="#737373"/></linearGradient></defs><path shape-rendering="crispEdges" fill="url(#p.47)" d="m1889.7638 2291.3386l401.57483 0l0 401.5747l-401.57483 0l0 -401.5747z" fill-rule="nonzero"/><defs><radialGradient id="p.48" gradientUnits="userSpaceOnUse" gradientTransform="matrix(23.83091531197027 0.0 0.0 23.83091531197027 0.0 0.0)" spreadMethod="pad" cx="96.14983531607054" cy="96.14983531607054" fx="96.14983531607054" fy="96.14983531607054" r="23.830915451049805"><stop offset="0.0" stop-color="#4b2f23"/><stop offset="1.0" stop-color="#660000"/></radialGradient></defs><path shape-rendering="crispEdges" fill="url(#p.48)" d="m2291.3386 2291.3386l401.5747 0l0 401.5747l-401.5747 0l0 -401.5747z" fill-rule="nonzero"/><defs><linearGradient id="p.49" gradientUnits="userSpaceOnUse" gradientTransform="matrix(23.830915486448212 0.0 0.0 23.830915486448212 0.0 0.0)" spreadMethod="pad" x1="104.57533558327422" y1="104.57530804895733" x2="121.42630999128588" y2="121.42633752560278"><stop offset="0.0" stop-color="#e5c18f"/><stop offset="0.5" stop-color="#e5c18f"/><stop offset="1.0" stop-color="#737373"/></linearGradient></defs><path shape-rendering="crispEdges" fill="url(#p.49)" d="m2692.9133 2291.3386l401.57495 0l0 401.5747l-401.57495 0l0 -401.5747z" fill-rule="nonzero"/><defs><radialGradient id="p.50" gradientUnits="userSpaceOnUse" gradientTransform="matrix(23.83091531197027 0.0 0.0 23.83091531197027 0.0 0.0)" spreadMethod="pad" cx="129.8518394474767" cy="96.14983531607054" fx="129.8518394474767" fy="96.14983531607054" r="23.830915451049805"><stop offset="0.0" stop-color="#4b2f23"/><stop offset="1.0" stop-color="#660000"/></radialGradient></defs><path shape-rendering="crispEdges" fill="url(#p.50)" d="m3094.4883 2291.3386l401.5747 0l0 401.5747l-401.5747 0l0 -401.5747z" fill-rule="nonzero"/><defs><radialGradient id="p.51" gradientUnits="userSpaceOnUse" gradientTransform="matrix(23.83091531197027 0.0 0.0 23.83091531197027 0.0 0.0)" spreadMethod="pad" cx="11.894824987555118" cy="113.00083738177362" fx="11.894824987555118" fy="113.00083738177362" r="23.830915451049805"><stop offset="0.0" stop-color="#4b2f23"/><stop offset="1.0" stop-color="#660000"/></radialGradient></defs><path shape-rendering="crispEdges" fill="url(#p.51)" d="m283.46457 2692.9133l401.5748 0l0 401.57495l-401.5748 0l0 -401.57495z" fill-rule="nonzero"/><defs><linearGradient id="p.52" gradientUnits="userSpaceOnUse" gradientTransform="matrix(23.83091487802102 0.0 0.0 23.83091487802102 0.0 0.0)" spreadMethod="pad" x1="20.320328111324663" y1="121.42631309142153" x2="37.171301228663765" y2="138.2773429982907"><stop offset="0.0" stop-color="#e5c18f"/><stop offset="0.5" stop-color="#e5c18f"/><stop offset="1.0" stop-color="#737373"/></linearGradient></defs><path shape-rendering="crispEdges" fill="url(#p.52)" d="m685.03937 2692.9133l401.57477 0l0 401.57495l-401.57477 0l0 -401.57495z" fill-rule="nonzero"/><defs><radialGradient id="p.53" gradientUnits="userSpaceOnUse" gradientTransform="matrix(23.83091531197027 0.0 0.0 23.83091531197027 0.0 0.0)" spreadMethod="pad" cx="45.59682911896128" cy="113.00083738177362" fx="45.59682911896128" fy="113.00083738177362" r="23.830915451049805"><stop offset="0.0" stop-color="#4b2f23"/><stop offset="1.0" stop-color="#660000"/></radialGradient></defs><path shape-rendering="crispEdges" fill="url(#p.53)" d="m1086.6141 2692.9133l401.57483 0l0 401.57495l-401.57483 0l0 -401.57495z" fill-rule="nonzero"/><defs><linearGradient id="p.54" gradientUnits="userSpaceOnUse" gradientTransform="matrix(23.830914269593848 0.0 0.0 23.830914269593848 0.0 0.0)" spreadMethod="pad" x1="54.02233595656707" y1="121.42631619155723" x2="70.87330778323354" y2="138.2773465286501"><stop offset="0.0" stop-color="#e5c18f"/><stop offset="0.5" stop-color="#e5c18f"/><stop offset="1.0" stop-color="#737373"/></linearGradient></defs><path shape-rendering="crispEdges" fill="url(#p.54)" d="m1488.189 2692.9133l401.57483 0l0 401.57495l-401.57483 0l0 -401.57495z" fill-rule="nonzero"/><defs><radialGradient id="p.55" gradientUnits="userSpaceOnUse" gradientTransform="matrix(23.83091531197027 0.0 0.0 23.83091531197027 0.0 0.0)" spreadMethod="pad" cx="79.29883325036745" cy="113.00083738177362" fx="79.29883325036745" fy="113.00083738177362" r="23.830915451049805"><stop offset="0.0" stop-color="#4b2f23"/><stop offset="1.0" stop-color="#660000"/></radialGradient></defs><path shape-rendering="crispEdges" fill="url(#p.55)" d="m1889.7638 2692.9133l401.57483 0l0 401.57495l-401.57483 0l0 -401.57495z" fill-rule="nonzero"/><defs><linearGradient id="p.56" gradientUnits="userSpaceOnUse" gradientTransform="matrix(23.830913052739543 0.0 0.0 23.830913052739543 0.0 0.0)" spreadMethod="pad" x1="87.72434259970738" y1="121.42632239182893" x2="104.57531184502838" y2="138.27735358936928"><stop offset="0.0" stop-color="#e5c18f"/><stop offset="0.5" stop-color="#e5c18f"/><stop offset="1.0" stop-color="#737373"/></linearGradient></defs><path shape-rendering="crispEdges" fill="url(#p.56)" d="m2291.3386 2692.9133l401.5747 0l0 401.57495l-401.5747 0l0 -401.57495z" fill-rule="nonzero"/><defs><radialGradient id="p.57" gradientUnits="userSpaceOnUse" gradientTransform="matrix(23.83091531197027 0.0 0.0 23.83091531197027 0.0 0.0)" spreadMethod="pad" cx="113.00083738177362" cy="113.00083738177362" fx="113.00083738177362" fy="113.00083738177362" r="23.830915451049805"><stop offset="0.0" stop-color="#4b2f23"/><stop offset="1.0" stop-color="#660000"/></radialGradient></defs><path shape-rendering="crispEdges" fill="url(#p.57)" d="m2692.9133 2692.9133l401.57495 0l0 401.57495l-401.57495 0l0 -401.57495z" fill-rule="nonzero"/><defs><linearGradient id="p.58" gradientUnits="userSpaceOnUse" gradientTransform="matrix(23.830910619031116 0.0 0.0 23.830910619031116 0.0 0.0)" spreadMethod="pad" x1="121.4263623266958" y1="121.42633479237328" x2="138.2773264093249" y2="138.27736771080868"><stop offset="0.0" stop-color="#e5c18f"/><stop offset="0.5" stop-color="#e5c18f"/><stop offset="1.0" stop-color="#737373"/></linearGradient></defs><path shape-rendering="crispEdges" fill="url(#p.58)" d="m3094.4883 2692.9133l401.5747 0l0 401.57495l-401.5747 0l0 -401.57495z" fill-rule="nonzero"/><defs><linearGradient id="p.59" gradientUnits="userSpaceOnUse" gradientTransform="matrix(23.83091495407442 0.0 0.0 23.83091495407442 0.0 0.0)" spreadMethod="pad" x1="3.4693237916944897" y1="138.27731502267824" x2="20.320297070367662" y2="155.12834487576944"><stop offset="0.0" stop-color="#e5c18f"/><stop offset="0.5" stop-color="#e5c18f"/><stop offset="1.0" stop-color="#737373"/></linearGradient></defs><path shape-rendering="crispEdges" fill="url(#p.59)" d="m283.46457 3094.4883l401.5748 0l0 401.5747l-401.5748 0l0 -401.5747z" fill-rule="nonzero"/><defs><radialGradient id="p.60" gradientUnits="userSpaceOnUse" gradientTransform="matrix(23.83091531197027 0.0 0.0 23.83091531197027 0.0 0.0)" spreadMethod="pad" cx="28.7458270532582" cy="129.8518394474767" fx="28.7458270532582" fy="129.8518394474767" r="23.830915451049805"><stop offset="0.0" stop-color="#4b2f23"/><stop offset="1.0" stop-color="#660000"/></radialGradient></defs><path shape-rendering="crispEdges" fill="url(#p.60)" d="m685.03937 3094.4883l401.57477 0l0 401.5747l-401.57477 0l0 -401.5747z" fill-rule="nonzero"/><defs><linearGradient id="p.61" gradientUnits="userSpaceOnUse" gradientTransform="matrix(23.830913052739543 0.0 0.0 23.830913052739543 0.0 0.0)" spreadMethod="pad" x1="37.171331610045506" y1="138.27732605504957" x2="54.022300855366495" y2="155.1283572525899"><stop offset="0.0" stop-color="#e5c18f"/><stop offset="0.5" stop-color="#e5c18f"/><stop offset="1.0" stop-color="#737373"/></linearGradient></defs><path shape-rendering="crispEdges" fill="url(#p.61)" d="m1086.6141 3094.4883l401.57483 0l0 401.5747l-401.57483 0l0 -401.5747z" fill-rule="nonzero"/><defs><radialGradient id="p.62" gradientUnits="userSpaceOnUse" gradientTransform="matrix(23.83091531197027 0.0 0.0 23.83091531197027 0.0 0.0)" spreadMethod="pad" cx="62.447831184664366" cy="129.8518394474767" fx="62.447831184664366" fy="129.8518394474767" r="23.830915451049805"><stop offset="0.0" stop-color="#4b2f23"/><stop offset="1.0" stop-color="#660000"/></radialGradient></defs><path shape-rendering="crispEdges" fill="url(#p.62)" d="m1488.189 3094.4883l401.57483 0l0 401.5747l-401.57483 0l0 -401.5747z" fill-rule="nonzero"/><defs><linearGradient id="p.63" gradientUnits="userSpaceOnUse" gradientTransform="matrix(23.830913052739543 0.0 0.0 23.830913052739543 0.0 0.0)" spreadMethod="pad" x1="70.87333893648676" y1="138.27732605504957" x2="87.72430818180774" y2="155.1283572525899"><stop offset="0.0" stop-color="#e5c18f"/><stop offset="0.5" stop-color="#e5c18f"/><stop offset="1.0" stop-color="#737373"/></linearGradient></defs><path shape-rendering="crispEdges" fill="url(#p.63)" d="m1889.7638 3094.4883l401.57483 0l0 401.5747l-401.57483 0l0 -401.5747z" fill-rule="nonzero"/><defs><radialGradient id="p.64" gradientUnits="userSpaceOnUse" gradientTransform="matrix(23.83091531197027 0.0 0.0 23.83091531197027 0.0 0.0)" spreadMethod="pad" cx="96.14983531607054" cy="129.8518394474767" fx="96.14983531607054" fy="129.8518394474767" r="23.830915451049805"><stop offset="0.0" stop-color="#4b2f23"/><stop offset="1.0" stop-color="#660000"/></radialGradient></defs><path shape-rendering="crispEdges" fill="url(#p.64)" d="m2291.3386 3094.4883l401.5747 0l0 401.5747l-401.5747 0l0 -401.5747z" fill-rule="nonzero"/><defs><linearGradient id="p.65" gradientUnits="userSpaceOnUse" gradientTransform="matrix(23.830915486448212 0.0 0.0 23.830915486448212 0.0 0.0)" spreadMethod="pad" x1="104.57533558327422" y1="138.2773119336144" x2="121.42630999128588" y2="155.12834141025988"><stop offset="0.0" stop-color="#e5c18f"/><stop offset="0.5" stop-color="#e5c18f"/><stop offset="1.0" stop-color="#737373"/></linearGradient></defs><path shape-rendering="crispEdges" fill="url(#p.65)" d="m2692.9133 3094.4883l401.57495 0l0 401.5747l-401.57495 0l0 -401.5747z" fill-rule="nonzero"/><defs><radialGradient id="p.66" gradientUnits="userSpaceOnUse" gradientTransform="matrix(23.83091531197027 0.0 0.0 23.83091531197027 0.0 0.0)" spreadMethod="pad" cx="129.8518394474767" cy="129.8518394474767" fx="129.8518394474767" fy="129.8518394474767" r="23.830915451049805"><stop offset="0.0" stop-color="#4b2f23"/><stop offset="1.0" stop-color="#660000"/></radialGradient></defs><path shape-rendering="crispEdges" fill="url(#p.66)" d="m3094.4883 3094.4883l401.5747 0l0 401.5747l-401.5747 0l0 -401.5747z" fill-rule="nonzero"/><path stroke="#4b2f23" stroke-width="16.0" stroke-linecap="butt" d="m283.46457 275.46457l0 3228.5984" fill-rule="nonzero"/><path stroke="#4b2f23" stroke-width="1.0" stroke-linecap="butt" d="m685.03937 275.46457l0 3228.5984" fill-rule="nonzero"/><path stroke="#4b2f23" stroke-width="1.0" stroke-linecap="butt" d="m1086.6141 275.46457l0 3228.5984" fill-rule="nonzero"/><path stroke="#4b2f23" stroke-width="1.0" stroke-linecap="butt" d="m1488.189 275.46457l0 3228.5984" fill-rule="nonzero"/><path stroke="#4b2f23" stroke-width="1.0" stroke-linecap="butt" d="m1889.7638 275.46457l0 3228.5984" fill-rule="nonzero"/><path stroke="#4b2f23" stroke-width="1.0" stroke-linecap="butt" d="m2291.3386 275.46457l0 3228.5984" fill-rule="nonzero"/><path stroke="#4b2f23" stroke-width="1.0" stroke-linecap="butt" d="m2692.9133 275.46457l0 3228.5984" fill-rule="nonzero"/><path stroke="#4b2f23" stroke-width="1.0" stroke-linecap="butt" d="m3094.4883 275.46457l0 3228.5984" fill-rule="nonzero"/><path stroke="#4b2f23" stroke-width="16.0" stroke-linecap="butt" d="m3496.063 275.46457l0 3228.5984" fill-rule="nonzero"/><path stroke="#4b2f23" stroke-width="16.0" stroke-linecap="butt" d="m275.46457 283.46457l3228.5984 0" fill-rule="nonzero"/><path stroke="#4b2f23" stroke-width="1.0" stroke-linecap="butt" d="m275.46457 685.03937l3228.5984 0" fill-rule="nonzero"/><path stroke="#4b2f23" stroke-width="1.0" stroke-linecap="butt" d="m275.46457 1086.6141l3228.5984 0" fill-rule="nonzero"/><path stroke="#4b2f23" stroke-width="1.0" stroke-linecap="butt" d="m275.46457 1488.189l3228.5984 0" fill-rule="nonzero"/><path stroke="#4b2f23" stroke-width="1.0" stroke-linecap="butt" d="m275.46457 1889.7638l3228.5984 0" fill-rule="nonzero"/><path stroke="#4b2f23" stroke-width="1.0" stroke-linecap="butt" d="m275.46457 2291.3386l3228.5984 0" fill-rule="nonzero"/><path stroke="#4b2f23" stroke-width="1.0" stroke-linecap="butt" d="m275.46457 2692.9133l3228.5984 0" fill-rule="nonzero"/><path stroke="#4b2f23" stroke-width="1.0" stroke-linecap="butt" d="m275.46457 3094.4883l3228.5984 0" fill-rule="nonzero"/><path stroke="#4b2f23" stroke-width="16.0" stroke-linecap="butt" d="m275.46457 3496.063l3228.5984 0" fill-rule="nonzero"/><path fill="#000000" fill-opacity="0.0" d="m3228.1208 3405.7637l0.06298828 204.40967l174.51953 0l-0.06298828 -204.40967z" fill-rule="evenodd"/><path fill="#4b2f23" d="m3360.0454 3550.7983l0.0053710938 17.5625l-66.1875 0q9.00293 9.625 13.31958 22.6875l-15.9375 0q-2.2521973 -6.875 -8.535889 -14.9375q-6.2836914 -8.0625 -14.659668 -11.0625l-0.0043945312 -14.25l92.0 0z" fill-rule="nonzero"/><path fill="#000000" fill-opacity="0.0" d="m2812.1208 3405.7637l0.06298828 204.40967l174.51953 0l-0.06298828 -204.40967z" fill-rule="evenodd"/><path fill="#4b2f23" d="m2927.7285 3536.4233l16.3125 0l0.019042969 61.5625q-9.250488 -1.0 -17.533203 -6.0q-8.282715 -5.0 -21.974854 -19.75q-11.066162 -11.875 -15.004395 -14.5625q-5.4387207 -3.625 -10.751221 -3.625q-5.875 0 -9.030273 3.15625q-3.1552734 3.15625 -3.1535645 8.71875q0.0017089844 5.5 3.3151855 8.75q3.3134766 3.25 11.001221 3.75l-1.7446289 17.5q-14.500488 -1.5625 -20.81543 -9.8125q-6.3151855 -8.25 -6.3188477 -20.625q-0.0041503906 -13.5625 7.305908 -21.3125q7.3100586 -7.75 18.185059 -7.75q6.1875 0 11.781982 2.21875q5.5944824 2.21875 11.720947 7.03125q4.0634766 3.1875 11.690918 11.5q7.6276855 8.3125 10.128174 10.53125q2.5007324 2.21875 4.8762207 3.59375l-0.0107421875 -34.875z" fill-rule="nonzero"/></g></svg>